<svg width="57" height="58" viewBox="0 0 57 58" fill="none" xmlns="http://www.w3.org/2000/svg">
<g clip-path="url(#clip0_29_2096)">
<path d="M0.224016 28.7501C0.306894 12.9021 12.9357 0.184927 28.5571 0.2255C44.2883 0.266072 56.8723 13.1365 56.776 29.0882C56.6842 44.5058 43.7754 57.2996 28.4586 57.1576C12.8103 57.0133 0.143378 44.2713 0.224016 28.7501ZM35.2882 8.70062C35.5547 8.87418 35.8191 9.04549 36.0856 9.21905C35.6376 8.20023 35.0552 7.29637 34.5221 6.36771C34.054 5.5495 33.4917 5.6081 32.8198 6.02961C33.6821 6.96052 34.502 7.8486 35.3218 8.73668C34.5132 8.06048 33.6665 7.4271 32.9116 6.69905C32.2822 6.09046 31.7894 6.12427 31.2316 6.80724C32.4636 7.56685 33.6799 8.3242 34.9119 9.05225C34.9544 9.07704 35.1605 8.82685 35.2882 8.70288V8.70062ZM51.6197 28.9936C51.4248 29.2866 51.2053 29.5684 51.044 29.8794C50.9186 30.1228 50.755 30.4271 50.7998 30.6661C51.1649 32.5639 51.5771 34.4528 52.0251 36.5716C52.8135 35.5753 53.5483 34.7008 54.218 33.7789C54.4711 33.4317 54.7847 32.9291 54.7085 32.5752C54.33 30.8013 53.8327 29.0522 53.4407 27.5375C52.7643 28.0807 52.1729 28.5563 51.5838 29.0319C51.9153 28.5022 52.276 27.9883 52.5627 27.436C52.7172 27.1385 52.9233 26.6742 52.8023 26.4555C51.8168 24.6726 50.7618 22.928 49.6776 21.0887C48.9496 21.9858 48.3919 22.6756 47.8722 23.3134C48.7996 25.4638 49.7067 27.5713 50.6162 29.6856C50.9656 29.4466 51.2926 29.2235 51.6197 28.9981V28.9936ZM18.4662 23.6177C17.8412 22.9122 17.2163 22.2045 16.5196 21.4178C14.7635 22.9753 13.0164 24.5261 11.1774 26.158C12.5303 27.8643 13.7735 29.4331 15.0906 31.0943C15.7536 30.2919 16.2733 29.6179 16.8422 28.9891C17.6015 28.1506 18.4012 27.3459 19.1829 26.5277C17.951 28.101 16.7168 29.6743 15.375 31.3873C17.0976 32.7848 18.7641 34.135 20.5112 35.5505C21.8709 33.3168 23.123 31.2589 24.3528 29.237C22.8744 28.0379 21.4946 26.9199 20.1506 25.8267C19.7877 26.0927 19.4674 26.3293 19.1471 26.566C19.3554 26.1941 19.5637 25.8222 19.7631 25.4615C19.3218 24.8394 18.8761 24.2128 18.4303 23.5862C18.997 24.0911 19.566 24.5982 20.1304 25.1031C21.8552 23.3382 23.5755 21.5778 25.3159 19.7972C24.6305 18.9384 23.8868 18.012 23.0737 16.9909C21.0152 18.3749 18.9881 19.7386 16.9721 21.0932C17.5366 22.0467 18.0003 22.8356 18.4662 23.6222V23.6177ZM34.1055 41.2419C31.6774 40.5883 29.4666 39.9955 27.1997 39.3846C26.3105 41.3862 25.4346 43.3607 24.4491 45.5764C26.8077 46.1625 29.0701 46.7417 31.3459 47.2579C31.5833 47.312 32.0806 47.0483 32.1657 46.8229C32.8422 45.0061 33.4492 43.1624 34.1055 41.2419ZM26.8839 39.2629C24.7246 38.1472 22.6974 37.1013 20.6255 36.0329C19.5413 37.9578 18.4841 39.8377 17.326 41.8956C19.6332 43.088 21.8328 44.224 24.1377 45.4141C25.0964 43.2683 25.9745 41.2983 26.8839 39.2629ZM34.2018 40.9083C34.782 38.332 35.3039 36.0194 35.8213 33.7293C33.8121 33.1951 31.9955 32.7127 30.1273 32.2168C29.2179 34.4551 28.3107 36.682 27.3408 39.0691C29.6637 39.6912 31.8387 40.275 34.204 40.9083H34.2018ZM24.6417 29.4286C23.3672 31.5226 22.1285 33.5535 20.7957 35.7444C22.8945 36.824 24.8926 37.8496 27.0183 38.9406C28.0061 36.5198 28.9133 34.2973 29.8138 32.0883C28.0464 31.18 26.4023 30.3347 24.6417 29.4309V29.4286ZM15.0906 31.6037C13.8474 33.4295 12.6266 35.2237 11.3431 37.1081C13.3367 38.7084 15.1488 40.1668 17.0416 41.686C18.2175 39.6033 19.277 37.7279 20.3388 35.8458C18.6118 34.4506 16.9363 33.0936 15.0906 31.6015V31.6037ZM34.4124 41.3501C33.7583 43.3224 33.0886 45.3442 32.3359 47.6118C34.54 47.6479 36.6478 47.7065 38.7556 47.6884C39.011 47.6884 39.4187 47.3255 39.4948 47.0573C40.0078 45.2293 40.4513 43.3787 40.9665 41.3501H34.4146H34.4124ZM36.1528 33.8578C35.6399 36.1208 35.1157 38.4357 34.5221 41.0548C36.547 41.0548 38.395 41.0729 40.243 41.0323C40.4849 41.0278 40.9105 40.7325 40.9306 40.5364C41.1658 38.359 41.3405 36.1749 41.5421 33.8578H36.1528ZM14.7142 47.1294C17.0416 48.3173 19.2636 49.4533 21.564 50.6277C22.4466 48.847 23.2193 47.2872 23.9988 45.7162C21.6783 44.5238 19.4562 43.3833 17.1603 42.2021C16.3561 43.8205 15.5834 45.3781 14.7142 47.1294ZM14.871 31.358C13.536 29.6811 12.2839 28.1077 10.9108 26.3812C9.66988 27.9432 8.46031 29.4534 7.27762 30.9839C7.14994 31.1484 7.07154 31.5294 7.1701 31.6623C8.43343 33.3822 9.7326 35.0772 11.0743 36.8443C12.4631 34.8383 13.6749 33.0869 14.8733 31.358H14.871ZM21.853 50.817C24.3416 51.4256 26.6778 52.0049 29.023 52.5549C29.1821 52.5909 29.4867 52.4557 29.5651 52.3137C30.3469 50.8486 31.095 49.3677 31.8566 47.8823C29.2134 47.17 26.7853 46.5163 24.3192 45.8514C23.5531 47.3954 22.787 48.9349 21.853 50.817ZM11.146 37.3785C10.4247 38.873 9.70572 40.3336 9.02478 41.8099C8.94414 41.9858 8.99566 42.3622 9.12782 42.4771C10.8548 43.9715 12.6065 45.4344 14.4096 46.9536C15.328 45.1121 16.1075 43.55 16.8758 42.0083C14.9853 40.4801 13.1418 38.9902 11.146 37.3763V37.3785ZM30.2595 31.89C32.1679 32.3994 33.9509 32.8773 35.9087 33.4002C36.2782 30.7945 36.6254 28.3647 36.9749 25.9056C35.5435 25.5179 34.269 25.1708 32.9385 24.8101C32.0627 27.1227 31.2048 29.3903 30.2595 31.89ZM24.8187 29.1356C26.5793 30.0372 28.2144 30.8734 29.9459 31.7593C30.8844 29.2686 31.7491 26.9762 32.6137 24.6816C31.3504 24.037 30.2013 23.4487 28.9558 22.813C27.6096 24.8687 26.2836 26.8951 24.8164 29.1356H24.8187ZM10.978 25.8537C12.9268 24.1407 14.6851 22.5922 16.392 21.091C15.7424 19.6394 15.1197 18.2487 14.4074 16.6573C12.6423 17.8632 10.9198 19.0218 9.22413 20.2209C9.0427 20.3494 8.88142 20.7664 8.9531 20.9535C9.587 22.5786 10.2769 24.179 10.9758 25.8537H10.978ZM41.3226 41.1247C43.0518 40.6874 44.6019 40.3178 46.1318 39.8895C46.3939 39.8151 46.7836 39.4838 46.7791 39.2787C46.7343 37.1396 46.6201 35.0005 46.5215 32.8164C44.7923 33.2221 43.3251 33.567 41.8647 33.9096C41.69 36.2425 41.5152 38.5394 41.3226 41.1247ZM24.5476 28.9395C25.979 26.7441 27.3184 24.6906 28.6691 22.6192C27.6522 21.7897 26.6823 20.9963 25.6878 20.1871C23.9272 21.9655 22.189 23.7237 20.3634 25.5675C21.7768 26.708 23.1275 27.7967 24.5476 28.9417V28.9395ZM8.35727 20.7371C7.06258 22.1459 5.80149 23.5028 4.56952 24.8845C4.41944 25.0513 4.30072 25.4029 4.3724 25.5855C5.07575 27.3955 5.82389 29.1874 6.61011 31.1101C8.14896 29.246 9.47277 27.6412 10.7518 26.0927C9.97004 24.3435 9.21293 22.6485 8.35727 20.7348V20.7371ZM46.9068 40.187C45.0118 40.5792 43.4102 40.888 41.8199 41.2577C41.5533 41.3186 41.1927 41.5913 41.1345 41.828C40.673 43.7056 40.2766 45.599 39.795 47.7763C41.7325 47.2759 43.5581 46.8229 45.368 46.3157C45.583 46.2549 45.8204 45.9145 45.8719 45.6688C46.2348 43.8836 46.5551 42.0872 46.9068 40.1893V40.187ZM29.751 52.9133C32.094 52.9133 34.2399 52.9178 36.3835 52.9042C36.5448 52.9042 36.7822 52.8051 36.8517 52.6788C37.6625 51.2092 38.451 49.7238 39.3828 47.9837H32.1657C31.4422 49.4578 30.6761 51.0244 29.751 52.9133ZM37.3221 25.9191C36.9637 28.4256 36.621 30.8238 36.2514 33.4024H41.522C41.3786 30.9456 41.2353 28.5338 41.0919 26.0927C39.7658 26.0318 38.5899 25.9777 37.3198 25.9191H37.3221ZM8.41999 42.0106C9.28685 40.3516 10.0574 38.9068 10.7876 37.4417C10.8727 37.2681 10.8145 36.9165 10.6891 36.7587C9.38317 35.1313 8.0504 33.5287 6.58771 31.7548C5.88437 33.2379 5.18102 34.6669 4.5404 36.123C4.43288 36.3687 4.49112 36.8128 4.65016 37.0314C5.85973 38.6814 7.1141 40.2975 8.41999 42.0106ZM21.5282 13.5468C19.2457 14.543 17.0483 15.501 14.7187 16.5198C15.4333 18.0976 16.0537 19.4681 16.6854 20.8633C18.885 19.3869 20.9167 18.0255 22.9281 16.6754C22.469 15.6498 22.0456 14.7008 21.5282 13.5468ZM41.4391 26.0002C41.5824 28.4706 41.7236 30.9253 41.8759 33.5512C43.175 33.2356 44.4384 32.9629 45.6726 32.6C45.9167 32.5279 46.2617 32.0636 46.2169 31.8539C45.7599 29.636 45.2313 27.4338 44.7251 25.2294C43.4909 25.5201 42.4851 25.7545 41.4391 26.0002ZM13.8586 11.9194C12.0285 12.8796 10.2836 13.7767 8.56559 14.7211C8.36399 14.8316 8.18256 15.2057 8.196 15.4469C8.27887 16.9571 8.41775 18.465 8.55215 20.142C10.6734 18.749 12.5549 17.5116 14.3603 16.326C14.1991 14.9037 14.0467 13.5693 13.8608 11.9194H13.8586ZM50.5467 30.5015C49.102 31.3468 47.9282 32.0365 46.8127 32.6902C46.9606 34.96 47.1062 37.1689 47.2674 39.6393C48.6316 38.7896 49.8456 38.0818 50.9992 37.2816C51.2613 37.099 51.4718 36.5874 51.4315 36.2605C51.1896 34.3784 50.8648 32.5076 50.549 30.5015H50.5467ZM21.1272 10.2153C19.9154 10.4655 18.7574 10.6639 17.6172 10.9456C13.9459 11.8517 13.7466 12.2191 14.7568 15.9496C14.7658 15.9811 14.7994 16.0036 14.8464 16.0645C17.0416 15.1246 19.2457 14.1824 21.4856 13.2222C21.3714 12.271 21.2594 11.3175 21.1272 10.2153ZM3.92889 24.5937C5.42966 23.1872 6.79155 21.9205 8.13328 20.6334C8.26767 20.5049 8.35727 20.2344 8.33487 20.0474C8.14 18.5011 7.91376 16.9571 7.65393 15.0998C6.29428 16.4432 5.04663 17.6513 3.83705 18.8933C3.65562 19.0804 3.56154 19.4433 3.57722 19.716C3.66682 21.3141 3.80346 22.9122 3.92889 24.5915V24.5937ZM3.92441 36.1929C4.82487 34.5317 5.57301 33.1635 6.301 31.7841C6.39508 31.606 6.47795 31.3265 6.40404 31.1687C5.59093 29.4061 4.74423 27.6569 3.77882 25.6351C3.04859 27.2309 2.38333 28.6374 1.76958 30.0665C1.6643 30.3099 1.68446 30.6751 1.78302 30.9298C2.44829 32.6271 3.15163 34.3086 3.92441 36.1952V36.1929ZM45.023 25.0964C45.5942 27.4496 46.1631 29.7892 46.7858 32.3476C47.8946 31.6556 48.9272 31.0267 49.9352 30.3618C50.0763 30.2694 50.2174 29.9538 50.1637 29.8185C49.3461 27.7268 48.4972 25.6464 47.6437 23.5298C46.6089 24.1474 45.8159 24.6208 45.023 25.0941V25.0964ZM45.5046 46.8319C43.5917 47.2128 41.746 47.5712 39.9047 47.9612C39.7278 47.9995 39.5217 48.1888 39.4388 48.3601C38.7601 49.805 38.106 51.2611 37.452 52.6991C42.1156 52.7352 44.0688 51.3309 45.5046 46.8319ZM51.7384 37.4191C50.1458 38.2982 48.8757 38.9879 47.6236 39.7047C47.4242 39.8196 47.1734 40.0315 47.1442 40.2299C46.8553 42.103 46.6111 43.9828 46.311 46.167C47.861 45.1684 49.261 44.2804 50.6363 43.3585C50.8245 43.2322 50.9678 42.9392 51.0014 42.7025C51.2568 41.0165 51.4785 39.3238 51.7384 37.4191ZM14.5911 47.445C14.2528 48.2993 13.881 49.0792 13.6548 49.8974C13.5786 50.1746 13.769 50.7066 14.0042 50.8598C14.9741 51.4842 15.9731 52.0815 17.0236 52.5504C20.2581 53.9929 19.2882 54.4437 21.2728 51.0514C21.3042 50.9996 21.2773 50.9117 21.2773 50.8846C19.0821 49.7554 16.9072 48.6374 14.5911 47.445ZM29.1507 53.1296C26.7473 52.4309 24.5051 51.766 22.2539 51.1438C22.0434 51.0852 21.6447 51.207 21.5327 51.3783C21.013 52.1739 20.5628 53.0169 19.9893 54.0155C22.1173 54.5609 24.0884 55.0861 26.073 55.5595C26.3956 55.6361 26.8973 55.6136 27.1034 55.413C27.8381 54.7007 28.481 53.8915 29.1507 53.1296ZM14.2909 47.2376C12.4071 45.7184 10.5659 44.2353 8.59919 42.6529C8.37519 43.6718 8.14224 44.5734 7.99664 45.4908C7.95184 45.7748 8.05264 46.2098 8.25423 46.3856C9.77964 47.7313 11.3476 49.0296 13.0231 50.4474C13.5114 49.2122 13.9056 48.2159 14.2909 47.2376ZM37.0443 25.5314C37.1675 23.1219 37.2974 20.9219 37.3713 18.7197C37.3781 18.4898 37.1048 18.1382 36.8763 18.0368C36.4485 17.8497 35.9579 17.8024 35.4293 17.6829C34.6431 19.9459 33.877 22.1526 33.0639 24.4968C34.4079 24.8462 35.6443 25.1662 37.0465 25.5314H37.0443ZM32.7369 24.3525C33.5545 22.0106 34.325 19.8039 35.1247 17.5184C34.4706 17.1893 33.8972 16.9008 33.2767 16.5874C31.8947 18.5755 30.5641 20.4892 29.1485 22.5245C30.3961 23.1602 31.5072 23.7259 32.7391 24.3525H32.7369ZM21.9067 6.97629C19.8482 7.18366 17.9308 7.373 16.0134 7.58037C15.8073 7.60291 15.4826 7.69082 15.4355 7.82831C15.0278 8.98012 14.6717 10.1522 14.2752 11.3919C16.5868 10.8825 18.5894 10.4588 20.5784 9.98091C20.8696 9.91103 21.2303 9.62252 21.3311 9.35203C21.5707 8.69161 21.676 7.98159 21.909 6.97404L21.9067 6.97629ZM14.8666 7.88016C10.194 8.70964 8.21168 10.6977 8.41327 14.232C10.1403 13.4273 11.8919 12.6271 13.6212 11.7841C13.8339 11.6804 13.9975 11.3581 14.0669 11.1034C14.3514 10.062 14.5911 9.00717 14.8643 7.88016H14.8666ZM31.4758 15.1471C29.6301 16.7092 27.8023 18.2554 25.8647 19.8963C26.9578 20.7777 27.8941 21.5305 28.8662 22.3149C30.2976 20.2615 31.6348 18.3478 32.9945 16.3958C32.4793 15.9721 32.0246 15.6002 31.4736 15.1471H31.4758ZM37.3646 25.5472H41.0269C40.6618 23.5636 40.3326 21.6229 39.945 19.6935C39.627 18.1112 39.5978 18.1179 37.8081 18.3163C37.6625 20.6807 37.5192 23.0542 37.3669 25.5472H37.3646ZM30.1094 13.4589C27.8448 14.5904 25.6788 15.6723 23.3784 16.8196C24.234 17.8835 24.9262 18.7445 25.6385 19.6304C27.5559 18.012 29.3725 16.4815 31.2428 14.9037C30.8934 14.4574 30.5552 14.0269 30.1072 13.4589H30.1094ZM23.2216 16.504C25.5735 15.3342 27.753 14.2478 29.9593 13.1478C29.7152 12.6294 29.5114 12.1966 29.2493 11.6376C26.8145 12.2349 24.4177 12.8232 21.8731 13.4498C22.3771 14.5926 22.7803 15.5055 23.2216 16.504ZM39.9988 18.323C40.2542 19.5627 40.5162 20.7664 40.7447 21.9768C40.9709 23.1759 41.1636 24.3841 41.3853 25.6802C42.4896 25.4007 43.4707 25.155 44.6064 24.8687C43.7149 22.7928 42.8547 20.9287 42.1178 19.0195C41.6832 17.8925 41.0449 17.7573 39.9988 18.323ZM27.5357 55.6564C27.5469 55.7781 27.5581 55.8976 27.5693 56.0193C29.1462 56.0193 30.7254 55.9922 32.3023 56.0261C34.2399 56.0666 35.1896 54.7029 36.323 53.4362C34.1301 53.3122 32.094 53.1905 30.0534 53.0958C29.8272 53.0846 29.5136 53.1657 29.3814 53.3212C28.7408 54.0763 28.145 54.8743 27.5357 55.6564ZM4.2492 37.3177C3.10235 40.1082 4.48888 43.5343 7.57329 45.493C7.80177 44.6004 8.0504 43.7123 8.24304 42.813C8.29679 42.565 8.27663 42.2021 8.13104 42.0218C6.85651 40.435 5.5439 38.8775 4.2492 37.3177ZM29.097 9.9516C27.2848 9.9516 25.5444 9.86144 23.8152 9.97189C21.2415 10.1364 21.0712 10.4858 21.956 13.0689C24.355 12.4806 26.7562 11.8923 29.2314 11.286C29.1866 10.8487 29.144 10.4182 29.097 9.9516ZM41.9341 17.7167C42.9309 20.0564 43.903 22.342 44.9312 24.7515C45.7443 24.2601 46.5193 23.7913 47.4601 23.221C45.966 21.0414 44.5661 18.997 43.1526 16.9346C42.6218 17.2749 42.2836 17.4913 41.9341 17.7145V17.7167ZM53.2727 26.2008C53.4878 25.5675 53.7252 25.0558 53.8282 24.5171C53.9671 23.7958 54.33 22.8491 54.0254 22.3577C53.0868 20.8498 51.8773 19.5109 50.6498 17.9511C50.307 19.006 50.045 19.7025 49.868 20.4215C49.8075 20.6627 49.8904 21.0053 50.0293 21.2217C51.0642 22.8469 52.1281 24.454 53.2705 26.1986L53.2727 26.2008ZM15.7603 6.9515C15.8297 7.02588 15.8969 7.10027 15.9664 7.17239C16.9273 7.07773 17.886 6.96052 18.8492 6.89515C19.8146 6.82978 20.7845 6.82978 21.7499 6.76667C21.9448 6.75315 22.1912 6.6427 22.3099 6.49168C22.7646 5.91465 23.179 5.30381 23.8017 4.43827C21.8597 4.36163 20.1349 4.28274 18.4102 4.2354C18.2175 4.2309 17.9644 4.35938 17.8323 4.50814C17.1267 5.30606 16.4502 6.13329 15.7648 6.94925L15.7603 6.9515ZM3.08219 20C0.940799 22.7319 0.340493 26.3834 1.49183 29.3903C2.19965 28.128 2.93211 26.8455 3.6377 25.5472C3.7497 25.3398 3.79226 25.0535 3.7609 24.8191C3.55482 23.2346 3.31739 21.6522 3.08219 20ZM21.6939 9.62252H29.1238C29.2426 9.06577 29.3232 8.68259 29.4374 8.14839C27.7104 7.86663 26.073 7.56009 24.4244 7.33919C22.1173 7.03265 21.9627 7.1769 21.6559 9.50531C21.6469 9.56842 21.6984 9.64055 21.6917 9.62252H21.6939ZM51.5793 42.3644C54.05 40.7415 55.6941 36.3056 54.6884 33.9321C53.8686 34.854 53.0129 35.7804 52.2043 36.7452C52.0139 36.9728 51.9064 37.3267 51.884 37.631C51.7608 39.2268 51.6757 40.8249 51.5793 42.3622V42.3644ZM44.1517 50.8621C47.3279 49.8929 50.3944 46.5682 50.419 44.1203C49.149 44.81 47.8364 45.511 46.5395 46.2368C46.2975 46.3721 46.0332 46.5772 45.9212 46.8184C45.303 48.164 44.7296 49.5277 44.1517 50.8621ZM3.75866 18.1968C5.05111 17.0969 6.29876 16.0442 7.53297 14.9781C7.69201 14.8406 7.86224 14.6512 7.9048 14.4574C8.2072 13.1208 8.47599 11.7774 8.7515 10.4565C5.34006 12.4851 4.30296 14.1824 3.75642 18.1968H3.75866ZM47.7109 22.9753C48.1634 22.3961 48.6136 21.8957 48.9586 21.3322C49.0885 21.118 49.0997 20.6402 48.9519 20.4734C47.4713 18.8099 45.9459 17.187 44.3801 15.4965C43.8874 16.1051 43.6342 16.4184 43.408 16.6979C44.8259 18.7648 46.2147 20.7889 47.7132 22.9753H47.7109ZM44.6131 13.8488C44.6131 14.6896 44.4093 15.3703 44.6467 15.616C46.199 17.2186 47.8453 18.7243 49.5119 20.3133C49.6216 20.0293 49.7269 19.7273 49.8523 19.432C50.3317 18.3095 50.1301 17.4688 49.0191 16.7971C47.6191 15.9518 46.2931 14.9826 44.6131 13.8488ZM55.1207 31.8877C56.6349 28.9643 56.393 25.5021 54.5114 23.3675C54.2337 24.2511 53.9514 25.1324 53.6827 26.0183C53.5886 26.3316 53.3937 26.699 53.4766 26.9672C53.9895 28.6262 54.5697 30.2626 55.1207 31.8877ZM22.5474 6.70807C22.9461 6.79597 23.179 6.86134 23.4187 6.8974C25.1457 7.16112 26.8951 7.33243 28.5975 7.71111C29.5091 7.91397 29.9929 7.71787 30.3917 6.68778C28.4899 6.06116 26.6353 5.42553 24.7582 4.85751C24.4871 4.77637 24.0324 4.92739 23.8174 5.13476C23.3694 5.56302 23.0267 6.10173 22.5474 6.70807ZM17.1961 4.49011C14.1543 4.46081 10.8705 6.62692 10.2187 8.97787C11.6724 8.50452 13.1888 8.02892 14.6918 7.50824C14.9808 7.40907 15.2675 7.18366 15.4557 6.93798C16.0403 6.17161 16.5779 5.36918 17.1984 4.49011H17.1961ZM54.2001 21.5531C54.2695 18.0774 53.0151 15.9112 50.3675 14.8586C50.419 15.4897 50.4482 16.1209 50.531 16.7475C50.5826 17.1329 50.6072 17.6063 50.8357 17.8722C51.8974 19.1074 53.0263 20.2818 54.2023 21.5531H54.2001ZM44.8707 12.1515C44.7721 12.2349 44.6736 12.3183 44.5728 12.4017C44.7318 12.8863 44.7408 13.5851 45.0723 13.8195C46.6985 14.9645 48.4076 15.9856 50.3406 17.2096C49.9375 16.0735 50.5266 14.7887 49.4066 14.1644C47.9663 13.3619 46.3871 12.812 44.8685 12.1515H44.8707ZM26.3149 2.75451C22.8654 1.47197 20.7868 1.77176 18.903 3.78009C20.0162 3.85673 21.1765 3.75755 22.2248 4.05057C23.8913 4.51716 25.0651 3.80939 26.3149 2.75451ZM3.34203 40.0608C3.4809 39.1344 3.58618 38.4492 3.68698 37.7617C3.75194 37.3267 3.99161 36.8105 3.84153 36.4702C3.11579 34.8315 2.28477 33.2424 1.45151 31.5541C0.672006 34.7008 1.89502 37.2839 3.34203 40.0608ZM34.7416 55.6744C38.1083 55.4941 41.0717 54.1101 42.3731 52.1875C40.7425 52.4985 39.0401 52.8186 37.34 53.1589C37.1384 53.1995 36.9121 53.3032 36.7733 53.4497C36.0901 54.1687 35.4315 54.9148 34.7416 55.6744ZM31.8319 5.76814C30.7814 5.10546 29.8025 4.43827 28.7767 3.85222C26.8749 2.76578 26.4897 2.8334 24.7873 4.34811C26.418 4.94768 28.0688 5.47737 29.6502 6.16935C30.4656 6.52549 31.1017 6.63594 31.8319 5.76814ZM49.5007 13.6257C48.7951 10.8284 47.5161 10.0868 43.7328 10.4813C44.2547 11.0741 44.5705 11.721 45.0745 11.9487C46.4857 12.5911 47.973 13.0599 49.5029 13.6234L49.5007 13.6257ZM33.6373 5.27C31.4064 2.13691 30.2573 1.65906 27.7485 2.81988C28.9581 3.57272 30.2035 4.24442 31.3257 5.08066C32.0851 5.64642 32.7548 5.76363 33.6373 5.27ZM31.2294 2.14593C32.0291 2.96639 32.8265 3.6178 33.4066 4.42474C34.0853 5.37143 34.8895 5.43004 35.8885 5.24295C34.6722 1.8529 34.7663 1.9611 31.2294 2.14593ZM42.3821 8.70513C43.137 9.26413 43.6186 9.87046 44.2054 10.0012C45.3836 10.2649 46.6201 10.2717 47.805 10.3821C46.0041 7.53078 46.0847 7.5984 42.3821 8.70513ZM38.3838 5.73207C38.4689 5.12574 38.5944 4.50589 38.619 3.88152C38.628 3.64485 38.46 3.24138 38.283 3.18052C37.2817 2.84242 36.2536 2.58546 35.2322 2.2992C35.996 3.75755 35.8146 5.96198 38.3816 5.72982L38.3838 5.73207ZM13.4016 51.0469C12.9626 51.7389 13.1597 52.2303 13.8541 52.5864C15.1757 53.2626 16.504 53.9276 17.8121 54.6331C18.5423 55.0275 18.9881 54.7863 19.3263 54.0831C17.3507 53.071 15.384 52.0635 13.4016 51.0469ZM45.3568 7.35272C44.4944 6.68327 43.632 6.01157 42.7203 5.30381C42.0439 5.9417 41.4592 6.49168 40.9015 7.01687C42.2074 9.17847 43.8179 7.61869 45.3568 7.35272ZM39.0558 3.40367C38.9259 4.39769 38.8228 5.19562 38.7175 6.00932C39.347 6.32714 39.9316 6.62241 40.505 6.91318C41.1367 6.30685 41.7124 5.75236 42.4112 5.08066C41.2577 4.50363 40.2228 3.98521 39.0535 3.40142L39.0558 3.40367ZM23.0424 1.52382C25.457 2.05351 27.538 3.07008 29.6973 1.71992C27.6388 0.286358 25.5086 0.743925 23.0424 1.52382ZM49.1871 11.4032C49.4245 13.939 51.3934 15.0322 53.2839 16.5018C52.4171 14.1801 51.5569 12.1673 49.1871 11.4032ZM19.1516 55.014C21.5259 56.3258 25.1502 56.806 26.0372 56.0035C24.2699 55.4986 22.4376 55.0298 20.6479 54.4347C19.8908 54.1845 19.4562 54.3017 19.1516 55.0117V55.014ZM12.6087 51.8178C12.7162 51.7795 12.8237 51.7412 12.9312 51.7006C12.8596 51.2971 12.9312 50.7178 12.6916 50.515C11.1998 49.2662 9.63852 48.1032 7.87568 46.7372C8.7627 49.3609 10.9399 50.3414 12.6087 51.8155V51.8178ZM37.3377 12.5956L37.0353 12.5708C36.5515 14.1193 36.0677 15.6655 35.5503 17.3155C36.22 17.4845 36.7733 17.6243 37.3355 17.7685V12.5956H37.3377ZM35.2299 17.196C35.7451 15.5326 36.2133 14.0156 36.6814 12.4986C36.5963 12.4626 36.5112 12.4265 36.4283 12.3905C35.4741 13.664 34.5221 14.9375 33.5164 16.2809C34.0898 16.5874 34.5736 16.8444 35.2299 17.1938V17.196ZM36.1931 12.1448C36.1349 12.0862 36.0766 12.0253 36.0184 11.9667C34.6408 12.9404 33.2655 13.9164 31.7737 14.9713C32.3494 15.4041 32.775 15.7219 33.2386 16.0713C34.278 14.6896 35.2344 13.4183 36.1909 12.1448H36.1931ZM37.882 12.7781L37.7521 12.83C37.7521 14.072 37.7432 15.3117 37.7544 16.5536C37.7678 18.0571 37.8014 18.0751 39.5083 17.7979C38.9617 16.1096 38.4219 14.4439 37.882 12.7781ZM31.5632 14.685C32.9586 13.7 34.3026 12.7534 35.6466 11.8044C35.6152 11.739 35.5816 11.6737 35.5503 11.6083C33.8972 12.1786 32.2463 12.7511 30.4633 13.3664C30.918 13.9119 31.2227 14.2771 31.5632 14.685ZM30.3021 13.0644C32.0403 12.4536 33.5993 11.9081 35.156 11.3626L35.1 11.1282C33.3439 11.2927 31.5878 11.455 29.7018 11.6308C29.9437 12.2079 30.1094 12.6068 30.2998 13.0644H30.3021ZM56.216 25.6644C55.9024 22.1774 55.2573 19.9009 54.4958 19.1999C54.1934 21.4516 54.9437 23.5434 56.216 25.6644ZM20.4306 2.08958C20.3925 1.97687 20.3544 1.86192 20.3164 1.74922L14.3962 4.30528C16.7056 4.28274 18.7887 3.72149 20.4284 2.08958H20.4306ZM34.8514 10.8329C34.8492 10.7518 34.8447 10.6684 34.8424 10.5872C33.093 10.3596 31.3459 10.1297 29.4464 9.88173C29.5024 10.4407 29.5427 10.8239 29.5875 11.2725C31.4108 11.1214 33.1311 10.9772 34.8514 10.8329ZM38.5988 13.0058C38.5249 13.0419 38.451 13.0779 38.3771 13.114C38.8699 14.6603 39.3627 16.2065 39.8868 17.8497C40.3684 17.737 40.8029 17.6333 41.3809 17.4981C40.3908 15.8977 39.4948 14.4529 38.5988 13.0058ZM42.9712 16.6348C41.5936 15.3613 40.3684 14.232 39.0177 12.9855C39.963 14.5295 40.8209 15.9315 41.7168 17.3944C42.0999 17.1622 42.4067 16.9774 42.9712 16.6348ZM29.816 8.29715C29.6906 8.82008 29.6077 9.16495 29.5181 9.53461C31.3347 9.77579 33.0684 10.008 34.8021 10.2379C34.8223 10.1702 34.8424 10.1004 34.8626 10.0327C33.2118 9.46473 31.5609 8.89672 29.816 8.2949V8.29715ZM43.9366 15.0164C44.0755 14.96 44.2144 14.9037 44.3533 14.8473C44.1741 14.4349 44.1024 13.7992 43.7955 13.6459C42.4448 12.9742 41.0247 12.44 39.6292 11.8563C39.6046 11.9103 39.5799 11.9667 39.5531 12.0208L43.9366 15.0164ZM28.6647 0.581635C30.3021 2.09408 32.0403 1.6816 33.7314 1.59369C32.2553 0.457664 30.5171 0.750687 28.6647 0.581635ZM39.9518 12.6812C39.8823 12.7534 39.8151 12.8255 39.7457 12.8954C40.9463 13.9705 42.1469 15.0457 43.3722 16.1457C43.4058 16.1006 43.6163 15.8188 43.9008 15.4334C42.5367 14.4822 41.2442 13.5806 39.9518 12.6812ZM46.4835 7.95454C47.7893 9.42642 48.4524 11.162 50.6094 11.4618C49.3394 10.1522 48.5912 8.51354 46.4835 7.95454ZM56.505 30.1769C56.4087 30.1702 56.3124 30.1657 56.216 30.1589C55.2036 32.8525 54.9706 34.5385 55.5373 36.3372C55.8599 34.2838 56.1824 32.2304 56.505 30.1769ZM34.9858 9.7262C35.0172 9.66534 35.0485 9.60448 35.0799 9.54363C33.9039 8.84262 32.7078 8.17318 31.5609 7.42935C30.8083 6.94248 30.4163 7.19944 30.1049 7.99962C31.7379 8.57665 33.3618 9.15143 34.9858 9.72846V9.7262ZM44.2345 13.389C44.3443 13.3146 44.4541 13.2402 44.5638 13.1681C44.2883 12.7736 44.0777 12.1222 43.7216 12.0276C42.4471 11.6895 41.1255 11.5407 39.8196 11.3198C39.8039 11.3919 39.786 11.4641 39.7703 11.5362C41.2577 12.1538 42.745 12.7714 44.2323 13.389H44.2345ZM36.5246 5.72306C36.827 7.19493 37.0779 8.42788 37.331 9.65858C37.3848 9.66309 37.4385 9.6676 37.4923 9.6721C37.7544 8.56087 38.0164 7.44964 38.2964 6.26628C37.6917 6.08145 37.2078 5.93268 36.5246 5.72306ZM50.5288 46.1715C51.5345 44.5689 52.5425 42.964 53.5483 41.3614C51.8302 42.4974 50.6587 43.9851 50.5288 46.1715ZM1.38879 21.5057C1.56351 21.5643 1.73822 21.6207 1.91518 21.6793C2.63196 19.7521 3.35099 17.8249 4.06777 15.8977C3.90873 15.8369 3.7497 15.776 3.59066 15.7174C2.85596 17.6468 2.12125 19.5763 1.38879 21.508V21.5057ZM37.7253 10.1657C38.6907 9.03422 39.4411 8.15289 40.2631 7.18817C39.6762 6.89515 39.2014 6.65848 38.6369 6.37672C38.3345 7.62996 38.0702 8.73669 37.7253 10.168V10.1657ZM39.4007 10.7518C39.394 10.8081 39.3873 10.8622 39.3806 10.9186C40.906 11.1553 42.4314 11.3942 43.9814 11.6354C43.8246 10.5331 43.2736 10.2131 42.2612 10.4182C41.3248 10.6075 40.3572 10.6481 39.403 10.7518H39.4007ZM36.7106 9.29794L36.8853 9.23483C36.7173 8.40534 36.565 7.57136 36.3768 6.74638C36.1035 5.55175 35.8974 5.44581 34.5916 5.79519C35.3039 6.97179 36.0072 8.13486 36.7128 9.29794H36.7106ZM40.5565 7.373C39.7726 8.30166 39.0827 9.11311 38.395 9.92681C38.4331 9.98091 38.4734 10.0373 38.5115 10.0914C39.6046 9.56166 40.6977 9.03422 41.9028 8.45043C41.3988 8.04696 41.0292 7.75168 40.5565 7.373ZM38.8967 10.2942C38.9057 10.3528 38.9169 10.4114 38.9259 10.47C40.3034 10.3032 41.681 10.1387 43.0787 9.96964C42.6755 8.83812 42.026 8.67808 41.0852 9.21454C40.3796 9.61801 39.6292 9.93808 38.899 10.2942H38.8967ZM11.0475 7.33694C10.9579 7.24678 10.8683 7.15436 10.7787 7.0642C9.36077 8.43014 7.94288 9.79833 6.52499 11.1643C6.65267 11.2905 6.78259 11.419 6.91026 11.5452L11.0475 7.33694ZM26.3261 56.5648H31.9305C31.926 56.4633 31.9215 56.3619 31.9171 56.2582C30.0579 56.6211 28.1607 55.8412 26.3261 56.5648ZM4.2604 42.8085C5.32438 44.2961 6.38836 45.7838 7.45233 47.2714C7.56881 46.1174 6.92594 45.218 4.2604 42.8085ZM34.3743 1.15416C34.3183 1.3187 34.26 1.48324 34.204 1.64553C35.6399 2.03999 37.0757 2.43219 38.5115 2.82664L38.6235 2.4705C37.2078 2.03097 35.7922 1.59369 34.3765 1.15416H34.3743ZM0.844482 27.6479C0.732484 27.6547 0.618247 27.6637 0.506249 27.6705C0.589127 29.1491 0.669766 30.63 0.752644 32.1086C0.90272 32.0974 1.0528 32.0861 1.20511 32.0748C1.0864 30.5984 0.965439 29.1243 0.846722 27.6479H0.844482ZM43.4864 4.93415C43.3946 5.06714 43.3005 5.20013 43.2086 5.33311C44.5302 5.86732 45.2291 7.34821 46.685 7.67955C46.7433 7.59164 46.8038 7.50599 46.862 7.41808C45.7376 6.5886 44.6109 5.76138 43.4864 4.9319V4.93415ZM45.7353 50.8824C44.4093 51.2656 43.0205 51.6014 42.2455 53.2604C43.5514 52.37 44.6445 51.6262 45.7353 50.8824ZM42.7898 4.90936C42.8458 4.80116 42.9018 4.69522 42.9555 4.58703C41.7012 3.95591 40.4468 3.32478 39.1947 2.69365C39.1454 2.79283 39.0961 2.89426 39.0468 2.99344C40.2945 3.63133 41.5421 4.27147 42.7898 4.90936Z" fill="black" stroke="black" stroke-width="0.77027" stroke-miterlimit="10"/>
<rect x="10" y="26" width="6" height="6" fill="#FF0000"/>
</g>
<defs>
<clipPath id="clip0_29_2096">
<rect width="57" height="57.3851" fill="white"/>
</clipPath>
</defs>
</svg>
