<svg width="296" height="311" viewBox="0 0 296 311" fill="none" xmlns="http://www.w3.org/2000/svg">
<path d="M76.6104 112.337C78.3481 122.952 88.5508 127.068 96.0455 120.846C98.5829 118.74 100.566 115.911 102.57 113.231C105.683 109.083 108.583 104.775 111.589 100.531C114.532 96.3728 117.314 92.0865 120.513 88.1299C122.378 85.8219 125.033 84.1626 127.101 81.9929C128.103 80.9399 128.69 79.419 129.255 78.0257C131.579 72.2716 130.929 65.188 137.933 60.4869C135.694 58.7532 133.978 56.7218 131.803 55.8815C126.291 53.7331 124.265 49.7126 123.274 44.1819C122.176 38.0343 122.506 32.3228 124.798 26.5368C125.609 24.4841 125.683 22.0697 125.726 19.8042C125.897 10.9763 130.374 4.10549 139.361 0C141.291 8.89169 149.074 7.977 155.566 10.2744C160.023 11.8591 164.692 16.2837 166.675 20.6232C169.959 27.7919 173.178 35.5349 170.929 44.033C170.598 45.2774 171.451 47.16 172.304 48.3512C181.835 61.5186 190.225 75.2178 195.066 90.9484C196.793 96.5642 199.511 101.925 205.14 105.264C207.198 106.488 209.853 108.657 207.187 112.018C206.697 112.635 207.155 114.092 207.347 115.124C209.266 125.483 209.426 135.843 207.806 146.287C207.635 147.383 209.81 149.957 210.897 149.957C217.326 149.946 223.755 149.329 230.194 148.989C246.964 148.106 263.744 147.319 280.514 146.33C282.135 146.234 283.691 144.947 285.301 144.192C287.998 146.553 290.941 149 293.723 151.637C294.565 152.435 295.269 153.648 295.493 154.775C296.879 161.848 289.469 176.026 282.785 178.408C276.804 180.535 273.606 184.875 271.943 190.48C271.559 191.778 272.795 193.926 273.862 195.192C276.442 198.266 279.16 201.297 282.231 203.86C284.235 205.53 286.953 206.349 289.331 207.583C291.602 208.763 295.13 209.54 295.77 211.316C296.57 213.571 295.077 216.677 294.437 219.389C293.681 222.633 291.548 226.1 292.167 229.014C295.408 244.319 292.508 258.657 287.252 272.994C282.924 284.789 274.075 291.958 264.352 299.063C251.772 308.252 237.486 307.38 223.957 305.742C215.705 304.743 207.774 298.35 200.471 293.288C196.494 290.533 191.483 287.417 191.206 281.205C191.196 280.886 187.507 279.971 187.016 280.567C184.202 283.928 181.068 282.609 179.181 280.524C174.063 274.898 168.615 275.994 162.954 278.812C152.698 283.917 148.455 278.652 143.135 272.484C141.984 271.154 141.248 269.367 139.905 268.325C136.152 265.421 132.794 262.645 127.698 267.4C122.975 271.803 119.521 265.666 114.457 263.528C111.931 270.176 109.404 276.812 106.877 283.439C106.387 284.726 106.195 286.342 105.299 287.246C98.263 294.362 91.2054 301.445 83.8812 308.252C82.3674 309.656 79.7341 310.422 77.5912 310.475C64.4887 310.741 51.2903 311.571 38.3051 310.358C33.2198 309.88 28.0065 305.242 23.87 301.403C13.145 291.48 4.34961 279.695 1.67368 265.219C-0.757044 252.062 -1.22613 238.417 5.0106 225.675C6.09803 223.452 7.30273 221.25 8.049 218.899C13.4755 201.882 26.6739 194.586 42.8574 190.895C46.3542 190.097 49.9897 189.459 53.188 187.97C54.7125 187.257 56.333 184.63 56.2264 182.982C55.7893 176.494 55.043 169.963 53.6144 163.635C53.1347 161.497 50.6187 159.327 48.4971 158.125C41.6314 154.233 40.2988 151.478 42.1218 144.001C43.2945 139.215 43.7956 134.258 45.1709 129.536C45.7999 127.345 47.9214 125.622 49.1155 123.548C55.5228 112.465 66.9195 114.922 76.6637 112.359L76.6104 112.337Z" fill="black"/>
</svg>
