<svg width="258" height="271" viewBox="0 0 258 271" fill="none" xmlns="http://www.w3.org/2000/svg">
<path d="M66.7753 97.8889C68.2899 107.138 77.1828 110.725 83.7153 105.303C85.9269 103.468 87.6553 101.003 89.4023 98.6674C92.1157 95.0528 94.6432 91.2993 97.2637 87.6014C99.8284 83.9776 102.254 80.2425 105.041 76.7948C106.668 74.7837 108.981 73.3379 110.784 71.4472C111.658 70.5297 112.169 69.2043 112.661 67.9902C114.687 62.9762 114.12 56.8037 120.225 52.7072C118.274 51.1966 116.778 49.4264 114.882 48.6942C110.078 46.8221 108.312 43.3187 107.448 38.4994C106.491 33.1424 106.779 28.1655 108.777 23.1237C109.483 21.335 109.548 19.2311 109.585 17.2571C109.734 9.5646 113.637 3.57746 121.47 0C123.152 7.74807 129.936 6.95102 135.595 8.95291C139.479 10.3338 143.549 14.1893 145.278 17.9707C148.14 24.2173 150.946 30.9645 148.985 38.3696C148.697 39.454 149.441 41.0944 150.184 42.1324C158.491 53.6062 165.805 65.5435 170.023 79.2509C171.529 84.1444 173.898 88.8155 178.805 91.7256C180.598 92.7915 182.912 94.6821 180.589 97.6108C180.161 98.1484 180.561 99.4181 180.728 100.317C182.401 109.344 182.54 118.371 181.128 127.472C180.979 128.427 182.875 130.67 183.823 130.67C189.426 130.661 195.029 130.123 200.642 129.826C215.259 129.057 229.885 128.371 244.502 127.509C245.915 127.426 247.271 126.305 248.674 125.647C251.025 127.704 253.59 129.836 256.015 132.134C256.75 132.829 257.363 133.886 257.558 134.868C258.766 141.032 252.308 153.386 246.481 155.462C241.268 157.315 238.481 161.097 237.031 165.981C236.697 167.112 237.774 168.984 238.704 170.087C240.952 172.765 243.322 175.407 245.998 177.64C247.745 179.095 250.115 179.809 252.187 180.884C254.166 181.913 257.242 182.589 257.8 184.137C258.497 186.102 257.196 188.808 256.638 191.172C255.978 193.998 254.12 197.02 254.659 199.559C257.484 212.896 254.956 225.389 250.375 237.882C246.602 248.161 238.89 254.407 230.415 260.598C219.45 268.606 206.998 267.846 195.206 266.419C188.014 265.547 181.1 259.977 174.735 255.566C171.269 253.165 166.901 250.45 166.66 245.037C166.65 244.759 163.435 243.962 163.008 244.481C160.554 247.41 157.822 246.261 156.178 244.444C151.717 239.541 146.969 240.496 142.035 242.952C133.095 247.401 129.397 242.813 124.76 237.437C123.756 236.279 123.115 234.722 121.944 233.814C118.673 231.284 115.746 228.865 111.305 233.007C107.188 236.844 104.177 231.497 99.7634 229.634C97.5611 235.426 95.3588 241.21 93.1565 246.984C92.729 248.105 92.5617 249.514 91.7812 250.302C85.6482 256.502 79.4966 262.674 73.1127 268.606C71.7932 269.829 69.4979 270.497 67.6302 270.543C56.2098 270.775 44.7058 271.497 33.3876 270.441C28.9551 270.024 24.4111 265.983 20.8056 262.637C11.4575 253.99 3.79122 243.721 1.45882 231.107C-0.659856 219.643 -1.06872 207.752 4.36735 196.649C5.31517 194.712 6.36522 192.793 7.01569 190.745C11.7455 175.916 23.2496 169.558 37.3555 166.342C40.4034 165.647 43.5721 165.091 46.3598 163.794C47.6886 163.173 49.1011 160.884 49.0081 159.447C48.6272 153.794 47.9767 148.103 46.7315 142.589C46.3133 140.726 44.1203 138.835 42.2711 137.788C36.2868 134.396 35.1253 131.995 36.7143 125.48C37.7364 121.309 38.1732 116.99 39.3719 112.875C39.9202 110.966 41.7694 109.465 42.8101 107.657C48.3949 98.0001 58.3284 100.141 66.8217 97.9074L66.7753 97.8889Z" fill="black"/>
</svg>
