<svg width="279" height="293" viewBox="0 0 279 293" fill="none" xmlns="http://www.w3.org/2000/svg">
<path d="M71.9917 105.826C73.6238 115.826 83.206 119.704 90.2449 113.842C92.628 111.858 94.4904 109.193 96.3728 106.668C99.2965 102.76 102.02 98.7013 104.844 94.7031C107.607 90.7852 110.22 86.7469 113.224 83.0193C114.976 80.8449 117.47 79.2817 119.412 77.2376C120.353 76.2455 120.904 74.8126 121.435 73.5C123.617 68.0789 123.007 61.4053 129.585 56.9763C127.482 55.343 125.87 53.4291 123.828 52.6375C118.651 50.6133 116.749 46.8256 115.818 41.615C114.786 35.8232 115.097 30.4423 117.249 24.9912C118.01 23.0572 118.08 20.7826 118.12 18.6482C118.281 10.3313 122.486 3.85811 130.927 -0.00976562C132.739 8.3673 140.048 7.50554 146.146 9.66995C150.332 11.163 154.717 15.3315 156.58 19.4198C159.663 26.1736 162.687 33.4684 160.575 41.4747C160.264 42.6471 161.065 44.4207 161.866 45.543C170.818 57.9483 178.698 70.8546 183.244 85.6748C184.866 90.9655 187.419 96.0158 192.706 99.1622C194.638 100.315 197.131 102.359 194.628 105.525C194.167 106.106 194.598 107.479 194.778 108.451C196.581 118.211 196.731 127.971 195.209 137.811C195.049 138.843 197.091 141.268 198.112 141.268C204.15 141.258 210.188 140.677 216.236 140.356C231.986 139.524 247.746 138.783 263.496 137.851C265.018 137.761 266.48 136.548 267.992 135.837C270.525 138.061 273.288 140.366 275.902 142.851C276.693 143.603 277.354 144.745 277.564 145.807C278.865 152.471 271.907 165.828 265.629 168.073C260.011 170.077 257.008 174.165 255.446 179.446C255.085 180.668 256.247 182.692 257.248 183.885C259.671 186.781 262.224 189.636 265.108 192.051C266.99 193.625 269.544 194.396 271.776 195.559C273.909 196.671 277.223 197.402 277.824 199.076C278.575 201.2 277.173 204.126 276.573 206.681C275.862 209.737 273.859 213.004 274.44 215.75C277.484 230.169 274.76 243.677 269.824 257.184C265.759 268.297 257.448 275.05 248.316 281.744C236.501 290.402 223.084 289.58 210.378 288.037C202.628 287.095 195.179 281.073 188.32 276.303C184.585 273.708 179.879 270.772 179.619 264.92C179.609 264.619 176.144 263.757 175.684 264.319C173.041 267.485 170.097 266.243 168.324 264.279C163.518 258.978 158.402 260.01 153.085 262.665C143.453 267.475 139.468 262.515 134.471 256.703C133.39 255.451 132.699 253.767 131.437 252.785C127.913 250.05 124.759 247.434 119.973 251.913C115.537 256.062 112.293 250.28 107.537 248.266C105.164 254.529 102.791 260.781 100.418 267.024C99.9573 268.237 99.7771 269.76 98.936 270.611C92.3276 277.315 85.6992 283.989 78.8204 290.402C77.3986 291.724 74.9254 292.446 72.9129 292.496C60.6072 292.746 48.2114 293.528 36.0158 292.386C31.2397 291.935 26.3435 287.566 22.4585 283.949C12.3857 274.6 4.12515 263.497 1.61194 249.859C-0.670968 237.464 -1.11153 224.608 4.74594 212.603C5.76724 210.509 6.89868 208.435 7.59958 206.22C12.6961 190.188 25.0919 183.314 40.2913 179.837C43.5754 179.085 46.9898 178.484 49.9936 177.081C51.4255 176.41 52.9474 173.935 52.8473 172.381C52.4367 166.269 51.7359 160.116 50.3941 154.154C49.9436 152.14 47.5806 150.096 45.588 148.964C39.1398 145.296 37.8882 142.701 39.6004 135.657C40.7018 131.147 41.1724 126.478 42.464 122.029C43.0548 119.965 45.0473 118.341 46.1688 116.387C52.1864 105.946 62.8901 108.261 72.0417 105.846L71.9917 105.826Z" fill="black"/>
</svg>
