<svg width="952" height="1003" viewBox="0 0 952 1003" fill="none" xmlns="http://www.w3.org/2000/svg">
<path d="M246.512 362.292C252.1 396.528 284.911 409.804 309.014 389.736C317.174 382.943 323.551 373.818 329.996 365.173C340.008 351.795 349.333 337.901 359.002 324.214C368.464 310.8 377.413 296.976 387.698 284.214C393.698 276.77 402.235 271.419 408.887 264.421C412.11 261.024 413.995 256.119 415.812 251.625C423.287 233.066 421.195 210.219 443.721 195.056C436.521 189.465 431.001 182.913 424.007 180.203C406.281 173.273 399.767 160.306 396.578 142.467C393.047 122.639 394.11 104.218 401.481 85.556C404.087 78.9352 404.327 71.148 404.464 63.8411C405.012 35.3682 419.412 13.2074 448.315 -0.0341797C454.52 28.6445 479.549 25.6943 500.428 33.1041C514.76 38.2155 529.777 52.4863 536.154 66.4826C546.714 89.6039 557.068 114.578 549.834 141.987C548.771 146.001 551.514 152.073 554.256 155.915C584.907 198.384 611.89 242.568 627.455 293.305C633.01 311.418 641.753 328.707 659.855 339.479C666.472 343.424 675.009 350.422 666.438 361.263C664.861 363.252 666.335 367.952 666.952 371.28C673.123 404.692 673.638 438.105 668.426 471.792C667.878 475.326 674.872 483.627 678.369 483.627C699.043 483.593 719.717 481.603 740.426 480.506C794.356 477.658 848.321 475.12 902.252 471.93C907.464 471.621 912.469 467.47 917.646 465.034C926.32 472.65 935.783 480.54 944.732 489.047C947.44 491.62 949.703 495.531 950.423 499.167C954.88 521.98 931.052 567.708 909.555 575.392C890.321 582.253 880.035 596.25 874.687 614.328C873.453 618.513 877.43 625.443 880.858 629.525C889.155 639.439 897.898 649.216 907.772 657.483C914.218 662.869 922.96 665.511 930.606 669.49C937.909 673.298 949.257 675.802 951.314 681.531C953.886 688.804 949.086 698.821 947.029 707.568C944.594 718.031 937.737 729.214 939.726 738.614C950.149 787.978 940.823 834.221 923.921 880.464C910.001 918.508 881.544 941.629 850.276 964.545C809.819 994.184 763.877 991.371 720.369 986.088C693.832 982.863 668.324 962.246 644.838 945.917C632.05 937.032 615.936 926.981 615.044 906.947C615.01 905.918 603.147 902.968 601.57 904.889C592.519 915.729 582.439 911.475 576.37 904.752C559.913 886.604 542.394 890.138 524.188 899.229C491.206 915.695 477.56 898.714 460.452 878.817C456.749 874.529 454.383 868.766 450.063 865.404C437.995 856.039 427.195 847.085 410.807 862.419C395.618 876.622 384.51 856.828 368.224 849.933C360.099 871.373 351.973 892.779 343.847 914.151C342.27 918.302 341.653 923.516 338.773 926.432C316.145 949.382 293.448 972.229 269.894 994.184C265.026 998.712 256.557 1001.18 249.666 1001.35C207.529 1002.21 165.084 1004.89 123.324 1000.98C106.97 999.432 90.2048 984.476 76.9021 972.092C42.4111 940.085 14.1258 902.076 5.52014 855.387C-2.29691 812.952 -3.80546 768.939 16.2514 727.842C19.7485 720.673 23.6228 713.572 26.0228 705.99C43.474 651.103 85.9192 627.57 137.964 615.666C149.21 613.093 160.901 611.035 171.187 606.232C176.09 603.934 181.301 595.461 180.958 590.143C179.552 569.218 177.152 548.154 172.558 527.743C171.015 520.848 162.924 513.85 156.101 509.973C134.021 497.418 129.736 488.533 135.599 464.417C139.37 448.98 140.981 432.994 145.404 417.762C147.427 410.696 154.25 405.138 158.09 398.449C178.695 362.703 215.346 370.628 246.683 362.36L246.512 362.292Z" fill="#DCD000"/>
</svg>
